<?xml version="1.0" standalone="no"?>
<!DOCTYPE svg PUBLIC "-//W3C//DTD SVG 20010904//EN"
 "http://www.w3.org/TR/2001/REC-SVG-20010904/DTD/svg10.dtd">
<svg version="1.0" xmlns="http://www.w3.org/2000/svg"
 width="700.000000pt" height="700.000000pt" viewBox="0 0 700.000000 700.000000"
 preserveAspectRatio="xMidYMid meet">
<metadata>
Created by potrace 1.14, written by Peter Selinger 2001-2017
</metadata>
<g transform="translate(0.000000,700.000000) scale(0.100000,-0.100000)"
fill="#000000" stroke="none">
<path d="M765 6994 c-11 -2 -45 -9 -75 -15 -232 -45 -439 -197 -577 -424 -26
-42 -55 -113 -81 -195 l-27 -85 -2 -2755 -1 -2755 24 -94 c44 -174 125 -312
251 -432 57 -53 181 -142 203 -144 3 -1 19 -8 37 -18 17 -9 71 -29 120 -44
l88 -28 2745 -2 c1844 -2 2761 1 2795 8 28 6 60 12 73 15 34 7 142 48 193 74
134 69 265 195 356 345 26 42 55 113 81 195 l27 85 0 2745 c0 1510 -3 2768 -7
2795 -11 75 -22 112 -58 199 -101 242 -332 445 -575 505 -27 7 -59 16 -70 19
-21 7 -5486 13 -5520 6z m1961 -918 c152 -40 283 -174 310 -316 4 -19 8 -948
9 -2065 1 -1655 -1 -2041 -12 -2089 -38 -166 -173 -294 -341 -322 -70 -12
-1403 -7 -1455 5 -107 25 -221 109 -269 198 -62 114 -58 -41 -58 2197 0 1452
3 2053 11 2081 42 154 155 270 299 309 79 21 1428 23 1506 2z m3066 -5 c146
-47 254 -164 287 -311 7 -29 11 -460 11 -1206 0 -1129 -1 -1164 -20 -1226 -44
-145 -162 -255 -305 -288 -52 -12 -1400 -18 -1461 -6 -134 25 -245 109 -304
231 -16 33 -33 76 -36 95 -4 19 -7 554 -8 1189 -1 861 2 1169 11 1213 29 144
153 272 303 314 34 9 220 12 755 12 661 1 714 0 767 -17z"/>
</g>
</svg>
